<svg width="34" height="34" viewBox="0 0 34 34" fill="none" xmlns="http://www.w3.org/2000/svg">
<path d="M1 17C1 8.16344 8.16344 1 17 1C25.8366 1 33 8.16344 33 17C33 25.8366 25.8366 33 17 33C8.16344 33 1 25.8366 1 17Z" fill="white"/>
<path d="M11.3111 11.3109H22.6889V19.8442H12.1431L11.3111 20.6762V11.3109ZM11.3111 9.88867C10.5289 9.88867 9.89603 10.5287 9.89603 11.3109L9.88892 24.1109L12.7334 21.2664H22.6889C23.4711 21.2664 24.1111 20.6264 24.1111 19.8442V11.3109C24.1111 10.5287 23.4711 9.88867 22.6889 9.88867H11.3111ZM12.7334 16.9998H21.2667V18.422H12.7334V16.9998ZM12.7334 14.8664H21.2667V16.2887H12.7334V14.8664ZM12.7334 12.7331H21.2667V14.1553H12.7334V12.7331Z" fill="#C62828"/>
<path d="M17 32C8.71573 32 2 25.2843 2 17H0C0 26.3888 7.61116 34 17 34V32ZM32 17C32 25.2843 25.2843 32 17 32V34C26.3888 34 34 26.3888 34 17H32ZM17 2C25.2843 2 32 8.71573 32 17H34C34 7.61116 26.3888 0 17 0V2ZM17 0C7.61116 0 0 7.61116 0 17H2C2 8.71573 8.71573 2 17 2V0Z" fill="#C62828"/>
</svg>
