<svg width="15" height="14" viewBox="0 0 15 14" fill="none" xmlns="http://www.w3.org/2000/svg">
<path d="M13.8669 6.16596C14.3819 6.16596 14.5969 5.5043 14.1786 5.1993L7.81357 0.569297C7.72267 0.5027 7.61292 0.466797 7.50024 0.466797C7.38756 0.466797 7.2778 0.5027 7.18691 0.569297L0.821906 5.1993C0.403572 5.50263 0.618572 6.16596 1.13524 6.16596H2.16691V12.3993H0.966906C0.893572 12.3993 0.833572 12.4593 0.833572 12.5326V13.3993C0.833572 13.4726 0.893572 13.5326 0.966906 13.5326H14.0336C14.1069 13.5326 14.1669 13.4726 14.1669 13.3993V12.5326C14.1669 12.4593 14.1069 12.3993 14.0336 12.3993H12.8336V6.16596H13.8669ZM5.31691 12.3993H3.36691V6.16596H5.31691V12.3993ZM8.46691 12.3993H6.51691V6.16596H8.46691V12.3993ZM11.6336 12.3993H9.66691V6.16596H11.6336V12.3993Z" fill="#595959"/>
</svg>
