<svg width="16" height="12" viewBox="0 0 16 12" fill="none" xmlns="http://www.w3.org/2000/svg">
<path d="M14.9333 0.133789H1.06666C0.771658 0.133789 0.533325 0.372122 0.533325 0.667122V11.3338C0.533325 11.6288 0.771658 11.8671 1.06666 11.8671H14.9333C15.2283 11.8671 15.4667 11.6288 15.4667 11.3338V0.667122C15.4667 0.372122 15.2283 0.133789 14.9333 0.133789ZM14.2667 10.6671H1.73333V1.33379H14.2667V10.6671ZM9.63832 5.40046H11.695C11.7167 5.40046 11.7333 5.34046 11.7333 5.26712V4.46712C11.7333 4.39379 11.7167 4.33379 11.695 4.33379H9.63832C9.61666 4.33379 9.59999 4.39379 9.59999 4.46712V5.26712C9.59999 5.34046 9.61666 5.40046 9.63832 5.40046ZM9.71832 7.80046H12.8133C12.8783 7.80046 12.9317 7.74046 12.9317 7.66712V6.86712C12.9317 6.79379 12.8783 6.73379 12.8133 6.73379H9.71832C9.65332 6.73379 9.59999 6.79379 9.59999 6.86712V7.66712C9.59999 7.74046 9.65332 7.80046 9.71832 7.80046ZM3.19999 8.68379H3.93166C4.00166 8.68379 4.05832 8.62879 4.06332 8.55879C4.12666 7.71712 4.82999 7.05046 5.68332 7.05046C6.53666 7.05046 7.23999 7.71712 7.30333 8.55879C7.30832 8.62879 7.36499 8.68379 7.43499 8.68379H8.16666C8.18474 8.68381 8.20264 8.68016 8.21927 8.67304C8.2359 8.66593 8.2509 8.65551 8.26338 8.64241C8.27585 8.62931 8.28553 8.61382 8.29182 8.59686C8.29812 8.57991 8.3009 8.56185 8.29999 8.54379C8.25332 7.65546 7.76666 6.88212 7.05666 6.44212C7.36976 6.09794 7.54277 5.64908 7.54166 5.18379C7.54166 4.15212 6.70999 3.31712 5.68499 3.31712C4.65999 3.31712 3.82833 4.15212 3.82833 5.18379C3.82833 5.66879 4.01166 6.10879 4.31332 6.44212C3.95187 6.66611 3.65 6.97425 3.43349 7.34023C3.21698 7.7062 3.09226 8.11915 3.06999 8.54379C3.06332 8.62046 3.12333 8.68379 3.19999 8.68379ZM5.68332 4.31712C6.15832 4.31712 6.54499 4.70546 6.54499 5.18379C6.54499 5.66212 6.15832 6.05046 5.68332 6.05046C5.20832 6.05046 4.82166 5.66212 4.82166 5.18379C4.82166 4.70546 5.20832 4.31712 5.68332 4.31712Z" fill="#595959"/>
</svg>
