<svg width="14" height="9" viewBox="0 0 14 9" fill="none" xmlns="http://www.w3.org/2000/svg">
<path d="M4.33337 2.72721H9.66671V4.06055H4.33337V2.72721ZM12.4 3.39388H13.6667C13.6667 1.55388 12.1734 0.0605469 10.3334 0.0605469H7.66671V1.32721H10.3334C11.4734 1.32721 12.4 2.25388 12.4 3.39388ZM1.60004 3.39388C1.60004 2.25388 2.52671 1.32721 3.66671 1.32721H6.33337V0.0605469H3.66671C1.82671 0.0605469 0.333374 1.55388 0.333374 3.39388C0.333374 5.23388 1.82671 6.72721 3.66671 6.72721H6.33337V5.46055H3.66671C2.52671 5.46055 1.60004 4.53388 1.60004 3.39388ZM11.6667 3.39388H10.3334V5.39388H8.33337V6.72721H10.3334V8.72721H11.6667V6.72721H13.6667V5.39388H11.6667V3.39388Z" fill="#C62828"/>
</svg>
