<svg width="76" height="36" viewBox="0 0 76 36" fill="none" xmlns="http://www.w3.org/2000/svg">
<path d="M23.7961 16.1543H21.9559C20.8758 16.1543 19.8757 16.6343 19.1957 17.4344L16.2754 20.7947V24.6351C17.1955 24.5151 17.7155 23.875 17.7155 23.875L23.9961 16.5943C24.1562 16.4343 24.0361 16.1543 23.7961 16.1543Z" fill="#E10600"/>
<path d="M8.23417 16.1543H10.0743C11.1545 16.1543 12.1545 16.6343 12.8346 17.4344L15.7549 20.7947V24.6351C14.8348 24.5151 14.3148 23.875 14.3148 23.875L8.07415 16.5943C7.91413 16.4343 8.03415 16.1543 8.23417 16.1543Z" fill="#E10600"/>
<path d="M19.7548 11.435V15.1954C19.7548 15.7154 19.5548 16.2355 19.2347 16.6355L16.3145 20.0358V14.7553L19.3547 11.235C19.4348 11.075 19.7548 11.195 19.7548 11.435Z" fill="#E10600"/>
<path d="M12.3145 11.435V15.1954C12.3145 15.7154 12.5145 16.2355 12.8345 16.6355L15.7548 20.0358V14.7553L12.7145 11.235C12.5945 11.075 12.3145 11.195 12.3145 11.435Z" fill="#E10600"/>
<path d="M67.7605 16.4353C67.9205 16.5954 68.0005 16.7954 68.0005 16.9954C68.0005 17.1954 67.9205 17.3954 67.7605 17.5554C67.6005 17.7155 67.4005 17.7955 67.2005 17.7955C67.0004 17.7955 66.8004 17.7155 66.6404 17.5554C66.4804 17.3954 66.4004 17.1954 66.4004 16.9954C66.4004 16.7954 66.4804 16.5954 66.6404 16.4353C66.8004 16.2753 67.0004 16.1953 67.2005 16.1953C67.4405 16.1953 67.6005 16.2753 67.7605 16.4353ZM67.8405 16.9954C67.8405 16.8354 67.7605 16.6754 67.6405 16.5553C67.5205 16.4353 67.3605 16.3553 67.2005 16.3553C67.0405 16.3553 66.8804 16.4353 66.7604 16.5553C66.6404 16.6754 66.5604 16.8354 66.5604 16.9954C66.5604 17.1554 66.6404 17.3154 66.7604 17.4354C66.8804 17.5554 67.0405 17.6355 67.2005 17.6355C67.3605 17.6355 67.5205 17.5554 67.6405 17.4354C67.8005 17.3154 67.8405 17.1554 67.8405 16.9954ZM66.8804 17.4354V16.5153H67.2005C67.3205 16.5153 67.4005 16.5153 67.4405 16.5553C67.5205 16.5954 67.5605 16.6754 67.5605 16.7954C67.5605 16.9154 67.4805 17.0354 67.3605 17.0754C67.4005 17.1154 67.4805 17.2354 67.6005 17.4354H67.3605L67.1605 17.1154H67.0805V17.4354H66.8804ZM67.1205 16.7154V16.9154H67.2405C67.3605 16.9154 67.4005 16.8754 67.4005 16.7954C67.4005 16.7154 67.3605 16.6754 67.2405 16.6754H67.1205V16.7154Z" fill="#00B74F"/>
<path d="M66.6001 18.5957H65.64C65.0799 18.5957 64.5599 18.8357 64.1998 19.2358L62.6797 20.9959V22.9961C63.1597 22.9161 63.4398 22.5961 63.4398 22.5961L66.6801 18.7957C66.7601 18.7157 66.6801 18.5957 66.6001 18.5957Z" fill="#E10600"/>
<path d="M64.32 21.7148L63.8799 22.1949C63.5999 22.4749 63.5999 22.955 63.8799 23.235C64.32 23.795 65.0001 24.6351 65.0001 24.6351H66.7202L64.32 21.7148Z" fill="#00B74F"/>
<path d="M28.7172 24.6751L25.877 16.1543H27.7171L29.7973 22.6749L31.8775 16.1543H33.7177L30.7974 24.6751H28.7172Z" fill="#00B74F"/>
<path d="M37.5978 16.1543C38.3979 16.1543 39.118 16.4343 39.678 16.9944C40.2381 17.5544 40.5181 18.2345 40.5181 19.0346C40.5181 19.8347 40.2381 20.5147 39.678 21.0748C39.118 21.6348 38.4379 21.9149 37.5978 21.9149H36.1177V24.7151H34.4375V16.1543H37.5978ZM37.5978 20.3147C38.3179 20.3147 38.8379 19.7546 38.8379 19.0346C38.8379 18.2745 38.3179 17.7545 37.5978 17.7545H36.1177V20.3147H37.5978Z" fill="#00B74F"/>
<path d="M47.5589 22.1949C47.5589 22.915 47.3189 23.515 46.7988 23.9551C46.2788 24.4351 45.6387 24.6351 44.9186 24.6351H41.3183V16.1543H44.6786C45.3987 16.1543 45.9988 16.3943 46.5188 16.8344C46.9989 17.2744 47.2789 17.8745 47.2789 18.5545C47.2789 19.2746 46.9988 19.8347 46.4788 20.2747C47.1589 20.6747 47.5589 21.3548 47.5589 22.1949ZM42.9585 17.7144V19.5946H44.6386C45.1587 19.5946 45.5587 19.1946 45.5587 18.6745C45.5587 18.1545 45.1987 17.7545 44.6386 17.7545H42.9585V17.7144ZM44.9186 23.115C45.4787 23.115 45.9187 22.6749 45.9187 22.1149C45.9187 21.5548 45.5187 21.1148 44.9186 21.1148H42.9985V23.115H44.9186Z" fill="#00B74F"/>
<path d="M59.9595 19.0756C60.3995 19.5157 60.5995 20.1157 60.5995 20.9158V24.6362H59.0394V21.1558C59.0394 20.3557 58.5593 19.9157 57.8393 19.9157C57.0392 19.9157 56.5191 20.3957 56.5191 21.4358V24.7162H54.959V18.5956H56.5191V19.2756C56.8792 18.7156 57.5192 18.4355 58.3193 18.4355C58.9594 18.4355 59.5194 18.6356 59.9595 19.0756Z" fill="#00B74F"/>
<path d="M62.6812 21.2748V24.6751H61.1211V16.1543H62.6812V21.2748Z" fill="#00B74F"/>
<path d="M52.8394 18.5956V19.3156C52.3593 18.7156 51.7193 18.4355 50.8392 18.4355C50.0391 18.4355 49.319 18.7556 48.759 19.3556C48.1989 19.9557 47.8789 20.7158 47.8789 21.6359C47.8789 22.5159 48.1589 23.316 48.759 23.9161C49.3591 24.5161 50.0391 24.8362 50.8392 24.8362C51.6793 24.8362 52.3593 24.5561 52.8394 23.9561V24.6762H54.3995V18.5956H52.8394ZM51.1592 23.396C50.1991 23.396 49.3991 22.596 49.3991 21.6359C49.3991 20.6758 50.1991 19.8757 51.1592 19.8757C52.1193 19.8757 52.9194 20.6758 52.9194 21.6359C52.9194 22.596 52.1193 23.396 51.1592 23.396Z" fill="#00B74F"/>
</svg>
