<svg width="284" height="90" viewBox="0 0 284 90" fill="none" xmlns="http://www.w3.org/2000/svg">
<path d="M19.6989 46C13.4962 46 8.66239 44.2763 5.19744 40.8245C1.73248 37.3328 0 32.3504 0 25.875V0.638863H8.34156V25.5555C8.34156 34.3292 12.1487 38.7171 19.7631 38.7171C27.3347 38.7171 31.1205 34.3292 31.1205 25.5555V0.638863H39.3337V25.875C39.3337 32.3504 37.6012 37.3328 34.1363 40.8245C30.7141 44.2763 25.9016 46 19.6989 46ZM90.9271 0.638863V45.3611H84.0613L59.2933 15.0782V45.3611H51.0159V0.638863H57.8816L82.6497 30.9218V0.638863H90.9271ZM102.963 0.638863H111.304V45.3611H102.963V0.638863ZM164.206 0.638863L144.635 45.3611H136.422L116.787 0.638863H125.835L140.786 35.1389L155.865 0.638863H164.206ZM202.633 38.3977V45.3611H168.946V0.638863H201.735V7.60231H177.287V19.231H198.976V26.068H177.287V38.3977H202.633ZM225.856 46C222.392 46 219.032 45.5097 215.781 44.5314C212.573 43.5509 210.029 42.2532 208.146 40.6338L211.034 34.1805C212.874 35.6291 215.12 36.8226 217.771 37.7588C220.467 38.6528 223.16 39.1009 225.856 39.1009C229.192 39.1009 231.674 38.5685 233.3 37.5037C234.967 36.4388 235.802 35.0324 235.802 33.2865C235.802 32.0088 235.332 30.9661 234.39 30.1564C233.492 29.3046 232.338 28.6435 230.925 28.1754C229.512 27.7073 227.587 27.1749 225.15 26.5782C221.728 25.7685 218.947 24.9588 216.809 24.1513C214.712 23.3416 212.894 22.0838 211.354 20.3801C209.857 18.6343 209.109 16.2917 209.109 13.3523C209.109 10.8833 209.773 8.64717 211.098 6.64399C212.466 4.60088 214.498 2.98147 217.194 1.79021C219.932 0.596728 223.267 0 227.204 0C229.94 0 232.636 0.341625 235.287 1.02266C237.941 1.7037 240.229 2.68422 242.154 3.962L239.523 10.4152C237.555 9.26388 235.501 8.39205 233.362 7.79531C231.224 7.19857 229.149 6.90133 227.14 6.90133C223.844 6.90133 221.385 7.4537 219.761 8.56066C218.176 9.66984 217.386 11.1384 217.386 12.9708C217.386 14.2485 217.836 15.2912 218.733 16.1009C219.674 16.9106 220.85 17.5495 222.263 18.0175C223.675 18.4856 225.6 19.018 228.038 19.6148C231.375 20.3801 234.111 21.1898 236.25 22.0417C238.389 22.8514 240.207 24.107 241.704 25.8107C243.246 27.5144 244.014 29.8148 244.014 32.712C244.014 35.181 243.33 37.4171 241.962 39.4203C240.635 41.4213 238.603 43.0185 235.867 44.212C233.128 45.4032 229.791 46 225.856 46ZM260.771 7.66665H245.884V0.638863H284V7.66665H269.113V45.3611H260.771V7.66665Z" fill="url(#paint0_linear_465_51384)"/>
<path d="M18.4141 74.2266H20.0312L22.4062 72.5625H20.4609L18.4141 74.2266ZM19.4844 86.2031C22.0312 86.2031 23.7109 84.6484 23.7109 82.2969V76.6406H24.1484C25.5156 76.6406 26.1641 75.6719 26.1641 74.4219V73.3594H24.6562V74.2656C24.6562 74.9219 24.4531 75.3359 23.7266 75.3359H21.8281V82.1484C21.8281 83.6719 20.8984 84.5781 19.4844 84.5781C18.0625 84.5781 17.1484 83.6797 17.1484 82.1484V75.3359H15.2578V82.2734C15.2578 84.6328 16.9375 86.2031 19.4844 86.2031ZM26.5078 86H28.3516V81.1719C28.3516 79.8672 29.0234 79.1953 30.1016 79.1953C31.1562 79.1953 31.8125 79.7656 31.8125 81.1172V86H33.6641V80.5391C33.6641 78.6172 32.4141 77.6016 30.7734 77.6016C29.4844 77.6016 28.6719 78.2656 28.3906 78.8984H28.3203V77.7344H26.5078V86ZM38.9922 87.6562C37.9531 87.6562 37.4141 87.1797 37.3203 86.6016H35.5078C35.5547 87.8672 36.5859 89.0781 38.9375 89.0781C41.0156 89.0781 42.7578 88.1875 42.7578 85.8594V77.7344H40.9609V78.9219H40.8906C40.5703 78.2344 39.8594 77.6172 38.5234 77.6172C36.6562 77.6172 35.3281 79.0312 35.3281 81.3203V82.2266C35.3281 84.5469 36.6797 85.8984 38.5078 85.8984C39.6719 85.8984 40.5391 85.3281 40.8516 84.6094H40.9219V85.7891C40.9219 86.9766 40.2891 87.6562 38.9922 87.6562ZM39.1094 79.1172C40.2344 79.1172 40.9141 80.1172 40.9141 81.4766V82.2344C40.9141 83.5 40.2656 84.4766 39.1172 84.4766C38 84.4766 37.2031 83.6484 37.2031 82.1719V81.4844C37.2031 80.0156 37.9453 79.1172 39.1094 79.1172ZM50.7656 77.6172C48.7188 77.6172 47.6016 79.1328 47.6016 81.3906V82.3281C47.6016 84.6172 48.7344 86.1094 50.7656 86.1094C52.0781 86.1094 52.9609 85.4688 53.1797 84.7344H53.25V86H55.0547V74.7734H53.2109V78.9219H53.1406C52.8672 78.1875 52.0391 77.6172 50.7656 77.6172ZM51.3203 79.1172C52.5 79.1172 53.2109 80.0391 53.2109 81.5391V82.1562C53.2109 83.7344 52.5 84.6172 51.3516 84.6172C50.1094 84.6172 49.4844 83.6406 49.4844 82.1406V81.5859C49.4844 80.1094 50.0938 79.1172 51.3203 79.1172ZM59.8359 88.0859C59.8359 88.625 60.2578 89.0312 60.7734 89.0312C61.3359 89.0312 61.7578 88.625 61.7578 88.0859C61.7578 87.5312 61.3359 87.1172 60.7734 87.1172C60.2578 87.1172 59.8359 87.5312 59.8359 88.0859ZM64.3047 77.7344H62.4609V82.6953C62.4609 83.8984 61.7188 84.5469 60.7188 84.5469C59.8281 84.5469 59.0234 84.1328 59.0234 82.7188V77.7344H57.1719V83.2188C57.1719 85.1484 58.3359 86.125 60.0312 86.125C61.3828 86.125 62.1484 85.4766 62.4219 84.8281H62.5V86H64.3047V77.7344ZM66.4609 86H68.3047V81.1719C68.3047 79.8672 68.9766 79.1953 70.0547 79.1953C71.1094 79.1953 71.7656 79.7656 71.7656 81.1172V86H73.6172V80.5391C73.6172 78.6172 72.3672 77.6016 70.7266 77.6016C69.4375 77.6016 68.625 78.2656 68.3438 78.8984H68.2734V77.7344H66.4609V86ZM78.9453 87.6562C77.9062 87.6562 77.3672 87.1797 77.2734 86.6016H75.4609C75.5078 87.8672 76.5391 89.0781 78.8906 89.0781C80.9688 89.0781 82.7109 88.1875 82.7109 85.8594V77.7344H80.9141V78.9219H80.8438C80.5234 78.2344 79.8125 77.6172 78.4766 77.6172C76.6094 77.6172 75.2812 79.0312 75.2812 81.3203V82.2266C75.2812 84.5469 76.6328 85.8984 78.4609 85.8984C79.625 85.8984 80.4922 85.3281 80.8047 84.6094H80.875V85.7891C80.875 86.9766 80.2422 87.6562 78.9453 87.6562ZM79.0625 79.1172C80.1875 79.1172 80.8672 80.1172 80.8672 81.4766V82.2344C80.8672 83.5 80.2188 84.4766 79.0703 84.4766C77.9531 84.4766 77.1562 83.6484 77.1562 82.1719V81.4844C77.1562 80.0156 77.8984 79.1172 79.0625 79.1172ZM91.2578 79.1172C92.375 79.1172 93.1641 79.9531 93.1641 81.2109V82.3984C93.1641 83.7891 92.4219 84.6172 91.2891 84.6172C90.1641 84.6172 89.4453 83.8047 89.4453 82.2969V81.4219C89.4453 79.9453 90.1484 79.1172 91.2578 79.1172ZM93.1172 84.6797H93.2109V86H95.0156V76.9609H95.9766V75.8047H94.9688V74.5078H93.2188V75.8047H91.2891V76.9609H93.1641V78.9766H93.0781C92.8047 78.2422 92.0078 77.6172 90.7031 77.6172C88.7891 77.6172 87.5625 78.9922 87.5625 81.1797V82.5391C87.5625 84.7656 88.8047 86.1094 90.6797 86.1094C92.0312 86.1094 92.8984 85.4141 93.1172 84.6797ZM101.75 84.9375H101.828V86H103.57V80.3516C103.57 78.3828 102.25 77.6016 100.336 77.6016C98.0234 77.6016 97.1172 78.7891 97.0469 80.2109H98.8047C98.875 79.5156 99.3203 79.0625 100.273 79.0625C101.203 79.0625 101.734 79.4453 101.734 80.3125V81.1875H99.6719C97.7656 81.1875 96.7422 82.1484 96.7422 83.625C96.7422 85.1719 97.8516 86.125 99.4531 86.125C100.672 86.125 101.398 85.5625 101.75 84.9375ZM100.031 84.7344C99.2891 84.7344 98.5859 84.3516 98.5859 83.5156C98.5859 82.8516 99.0469 82.3828 100.016 82.3828H101.734V83.2266C101.734 84.0938 100.992 84.7344 100.031 84.7344ZM104.141 75.3125L102.445 73.4844H100.922L102.953 75.3125H104.141ZM103.055 76.5938L100.922 74.7188H99.75L97.6562 76.5938H99.1719L100.305 75.5469H100.383L101.539 76.5938H103.055ZM112.742 77.7344H110.898V82.6953C110.898 83.8984 110.156 84.5469 109.156 84.5469C108.266 84.5469 107.461 84.1328 107.461 82.7188V77.7344H105.609V83.2188C105.609 85.1484 106.773 86.125 108.469 86.125C109.82 86.125 110.586 85.4766 110.859 84.8281H110.938V86H112.742V77.7344ZM118.586 77.7969H117.398V79.2422H118.555V83.6719C118.555 85.3359 119.148 86.0547 121.18 86.0547C121.555 86.0547 121.891 86.0156 122.039 85.9922V84.5938C121.938 84.6094 121.789 84.6094 121.633 84.6094C120.727 84.6094 120.383 84.3594 120.383 83.4844V79.2422H121.992V77.7969H120.383V75.7344H118.586V77.7969ZM128.836 84.625H128.93V86H130.742V79.0312H130.922C132.305 79.0312 132.945 78.0547 132.945 76.8203V75.6016H131.43V76.6641C131.43 77.3125 131.273 77.7344 130.547 77.7344H128.898V82.7969C128.898 83.8281 128.078 84.5859 127.047 84.5859C126.219 84.5859 125.461 84.2109 125.461 82.9141V77.7344H123.609V83.375C123.609 85.3203 124.75 86.125 126.398 86.125C127.852 86.125 128.609 85.2891 128.836 84.625ZM137.055 86H138.898V81.2109C138.898 79.8984 139.602 79.1953 140.68 79.1953C141.742 79.1953 142.391 79.9297 142.391 81.2031V86H144.242V80.7891C144.242 78.8516 143.07 77.6016 141.273 77.6016C139.914 77.6016 139.203 78.3438 138.977 78.8984H138.898V74.7734H137.055V86ZM150.906 84.9375H150.984V86H152.727V80.3516C152.727 78.3828 151.406 77.6016 149.492 77.6016C147.18 77.6016 146.273 78.7891 146.203 80.2109H147.961C148.031 79.5156 148.477 79.0625 149.43 79.0625C150.359 79.0625 150.891 79.4453 150.891 80.3125V81.1875H148.828C146.922 81.1875 145.898 82.1484 145.898 83.625C145.898 85.1719 147.008 86.125 148.609 86.125C149.828 86.125 150.555 85.5625 150.906 84.9375ZM149.188 84.7344C148.445 84.7344 147.742 84.3516 147.742 83.5156C147.742 82.8516 148.203 82.3828 149.172 82.3828H150.891V83.2266C150.891 84.0938 150.148 84.7344 149.188 84.7344ZM150.539 76.4531L148.953 74.2422H147.078L149.016 76.4531H150.539ZM154.82 86H156.664V81.1719C156.664 79.8672 157.336 79.1953 158.414 79.1953C159.469 79.1953 160.125 79.7656 160.125 81.1172V86H161.977V80.5391C161.977 78.6172 160.727 77.6016 159.086 77.6016C157.797 77.6016 156.984 78.2656 156.703 78.8984H156.633V77.7344H154.82V86ZM167.305 87.6562C166.266 87.6562 165.727 87.1797 165.633 86.6016H163.82C163.867 87.8672 164.898 89.0781 167.25 89.0781C169.328 89.0781 171.07 88.1875 171.07 85.8594V77.7344H169.273V78.9219H169.203C168.883 78.2344 168.172 77.6172 166.836 77.6172C164.969 77.6172 163.641 79.0312 163.641 81.3203V82.2266C163.641 84.5469 164.992 85.8984 166.82 85.8984C167.984 85.8984 168.852 85.3281 169.164 84.6094H169.234V85.7891C169.234 86.9766 168.602 87.6562 167.305 87.6562ZM167.422 79.1172C168.547 79.1172 169.227 80.1172 169.227 81.4766V82.2344C169.227 83.5 168.578 84.4766 167.43 84.4766C166.312 84.4766 165.516 83.6484 165.516 82.1719V81.4844C165.516 80.0156 166.258 79.1172 167.422 79.1172ZM179.617 79.1172C180.734 79.1172 181.523 79.9531 181.523 81.2109V82.3984C181.523 83.7891 180.781 84.6172 179.648 84.6172C178.523 84.6172 177.805 83.8047 177.805 82.2969V81.4219C177.805 79.9453 178.508 79.1172 179.617 79.1172ZM181.477 84.6797H181.57V86H183.375V76.9609H184.336V75.8047H183.328V74.5078H181.578V75.8047H179.648V76.9609H181.523V78.9766H181.438C181.164 78.2422 180.367 77.6172 179.062 77.6172C177.148 77.6172 175.922 78.9922 175.922 81.1797V82.5391C175.922 84.7656 177.164 86.1094 179.039 86.1094C180.391 86.1094 181.258 85.4141 181.477 84.6797ZM190.109 84.9375H190.188V86H191.93V80.3516C191.93 78.3828 190.609 77.6016 188.695 77.6016C186.383 77.6016 185.477 78.7891 185.406 80.2109H187.164C187.234 79.5156 187.68 79.0625 188.633 79.0625C189.562 79.0625 190.094 79.4453 190.094 80.3125V81.1875H188.031C186.125 81.1875 185.102 82.1484 185.102 83.625C185.102 85.1719 186.211 86.125 187.812 86.125C189.031 86.125 189.758 85.5625 190.109 84.9375ZM188.391 84.7344C187.648 84.7344 186.945 84.3516 186.945 83.5156C186.945 82.8516 187.406 82.3828 188.375 82.3828H190.094V83.2266C190.094 84.0938 189.352 84.7344 188.391 84.7344ZM192.5 75.3125L190.805 73.4844H189.281L191.312 75.3125H192.5ZM191.414 76.5938L189.281 74.7188H188.109L186.016 76.5938H187.531L188.664 75.5469H188.742L189.898 76.5938H191.414ZM201.102 77.7344H199.258V82.6953C199.258 83.8984 198.516 84.5469 197.516 84.5469C196.625 84.5469 195.82 84.1328 195.82 82.7188V77.7344H193.969V83.2188C193.969 85.1484 195.133 86.125 196.828 86.125C198.18 86.125 198.945 85.4766 199.219 84.8281H199.297V86H201.102V77.7344ZM211.289 86L214.922 75.3359H212.812L210.266 83.8047H210.195L207.625 75.3359H205.445L209.086 86H211.289ZM216.383 86H218.227V77.7344H216.383V86ZM216.195 75.6875C216.195 76.2578 216.648 76.6719 217.289 76.6719C217.969 76.6719 218.406 76.2578 218.406 75.6875C218.406 75.1172 217.961 74.7031 217.289 74.7031C216.648 74.7031 216.195 75.1172 216.195 75.6875ZM221.344 76.4609H222.766L223.664 75.0469H223.719L224.539 76.4688H225.984L224.336 74.1016H223.07L221.344 76.4609ZM223.852 86.1406C226.188 86.1406 227.102 84.6875 227.234 83.5781H225.453C225.344 84.1562 224.852 84.6797 223.844 84.6797C222.586 84.6797 221.977 83.6797 221.977 82.5312V82.2734H227.32V81.5312C227.32 79.1875 226.07 77.5938 223.742 77.5938C221.484 77.5938 220.156 79.1406 220.156 81.5391V82.2344C220.156 84.6328 221.469 86.1406 223.852 86.1406ZM221.977 81.0312V81.0156C221.977 79.8594 222.648 79.0156 223.758 79.0156C224.859 79.0156 225.523 79.8516 225.523 81.0156V81.0312H221.977ZM222.789 88.0859C222.789 88.625 223.211 89.0312 223.727 89.0312C224.289 89.0312 224.711 88.625 224.711 88.0859C224.711 87.5312 224.289 87.1172 223.727 87.1172C223.211 87.1172 222.789 87.5312 222.789 88.0859ZM229.57 77.7969H228.383V79.2422H229.539V83.6719C229.539 85.3359 230.133 86.0547 232.164 86.0547C232.539 86.0547 232.875 86.0156 233.023 85.9922V84.5938C232.922 84.6094 232.773 84.6094 232.617 84.6094C231.711 84.6094 231.367 84.3594 231.367 83.4844V79.2422H232.977V77.7969H231.367V75.7344H229.57V77.7969ZM239.727 86V78.5156H239.781L244.695 86H246.312V75.3359H244.516V82.7969H244.453L239.555 75.3359H237.922V86H239.727ZM253.141 84.9375H253.219V86H254.961V80.3516C254.961 78.3828 253.641 77.6016 251.727 77.6016C249.414 77.6016 248.508 78.7891 248.438 80.2109H250.195C250.266 79.5156 250.711 79.0625 251.664 79.0625C252.594 79.0625 253.125 79.4453 253.125 80.3125V81.1875H251.062C249.156 81.1875 248.133 82.1484 248.133 83.625C248.133 85.1719 249.242 86.125 250.844 86.125C252.062 86.125 252.789 85.5625 253.141 84.9375ZM251.422 84.7344C250.68 84.7344 249.977 84.3516 249.977 83.5156C249.977 82.8516 250.438 82.3828 251.406 82.3828H253.125V83.2266C253.125 84.0938 252.383 84.7344 251.422 84.7344ZM257.055 86H258.898V80.9141C258.898 79.7422 259.594 79.1719 260.461 79.1719C261.375 79.1719 262.008 79.7188 262.008 80.9297V86H263.805V80.9297C263.805 79.8516 264.383 79.1719 265.375 79.1719C266.336 79.1719 266.914 79.7891 266.914 80.8438V86H268.758V80.3594C268.758 78.6953 267.758 77.6016 266.039 77.6016C264.664 77.6016 263.797 78.2891 263.516 79H263.438C263.141 78.1562 262.383 77.6016 261.102 77.6016C259.906 77.6016 259.195 78.2734 258.961 78.8672H258.867V77.7344H257.055V86Z" fill="url(#paint1_linear_465_51384)"/>
<defs>
<linearGradient id="paint0_linear_465_51384" x1="-5.64659" y1="-13.203" x2="197.056" y2="119.852" gradientUnits="userSpaceOnUse">
<stop stop-color="#850001"/>
<stop offset="0.390625" stop-color="#DF2A2B"/>
<stop offset="0.739583" stop-color="#AF1515"/>
<stop offset="1" stop-color="#8C0304"/>
</linearGradient>
<linearGradient id="paint1_linear_465_51384" x1="14" y1="70" x2="54.1551" y2="211.251" gradientUnits="userSpaceOnUse">
<stop stop-color="#850001"/>
<stop offset="1" stop-color="#D92929"/>
</linearGradient>
</defs>
</svg>
